<svg width="20" height="20" viewBox="0 0 20 20" fill="none" xmlns="http://www.w3.org/2000/svg">
<path d="M15.9749 5.53359C15.6166 3.72526 14.2749 2.93359 12.4083 2.93359H5.09159C2.89159 2.93359 1.42493 4.03359 1.42493 6.60026V10.8919C1.42493 12.7419 2.18326 13.8253 3.43326 14.2919C3.61659 14.3586 3.81659 14.4169 4.02493 14.4503C4.35826 14.5253 4.71659 14.5586 5.09159 14.5586H12.4166C14.6166 14.5586 16.0833 13.4586 16.0833 10.8919V6.60026C16.0833 6.20859 16.0499 5.85859 15.9749 5.53359ZM4.60826 10.0003C4.60826 10.3419 4.32493 10.6253 3.98326 10.6253C3.64159 10.6253 3.35826 10.3419 3.35826 10.0003V7.50026C3.35826 7.15859 3.64159 6.87526 3.98326 6.87526C4.32493 6.87526 4.60826 7.15859 4.60826 7.50026V10.0003ZM8.74993 10.9503C7.53326 10.9503 6.54993 9.96693 6.54993 8.75026C6.54993 7.53359 7.53326 6.55026 8.74993 6.55026C9.96659 6.55026 10.9499 7.53359 10.9499 8.75026C10.9499 9.96693 9.96659 10.9503 8.74993 10.9503ZM14.1333 10.0003C14.1333 10.3419 13.8499 10.6253 13.5083 10.6253C13.1666 10.6253 12.8833 10.3419 12.8833 10.0003V7.50026C12.8833 7.15859 13.1666 6.87526 13.5083 6.87526C13.8499 6.87526 14.1333 7.15859 14.1333 7.50026V10.0003Z" fill="#292D32"/>
<path d="M18.5834 9.10007V13.3917C18.5834 15.9584 17.1167 17.0667 14.9084 17.0667H7.59172C6.96672 17.0667 6.40838 16.9751 5.92505 16.7917C5.53338 16.6501 5.19172 16.4417 4.91672 16.1751C4.76672 16.0334 4.88338 15.8084 5.09172 15.8084H12.4084C15.4917 15.8084 17.3251 13.9751 17.3251 10.9001V6.60007C17.3251 6.40007 17.5501 6.27507 17.6917 6.42507C18.2584 7.02507 18.5834 7.90007 18.5834 9.10007Z" fill="#292D32"/>
</svg>
