<svg width="138" height="42" viewBox="0 0 138 42" fill="none" xmlns="http://www.w3.org/2000/svg">
<path d="M126.98 27.7687H123.254L124.707 17.5958H123.069L123.491 14.5728H125.13L125.341 13.127C125.738 10.3143 127.191 9 130.045 9C130.363 9 131.895 9.07886 132.477 9.15772L132.054 11.8915C131.367 11.7601 130.812 11.7601 130.574 11.7601C129.702 11.7601 129.2 12.1018 129.068 13.0482L128.856 14.5728H137.26L135.41 27.7424H131.684L133.111 17.5958H128.433L126.98 27.7687ZM137.524 12.6539H133.798L134.274 9.34173H138L137.524 12.6539Z" fill="#010F0B"/>
<path d="M122.151 27.7425H118.134L118.716 23.5366H122.759L122.151 27.7425Z" fill="#010F0B"/>
<path d="M119.218 12.6276H115.492L115.967 9.3418H119.694L119.218 12.6276ZM117.104 27.7425H113.378L115.228 14.5729H118.954L117.104 27.7425Z" fill="#010F0B"/>
<path d="M112.201 27.7425H108.501L111.091 9.3418H114.791L112.201 27.7425Z" fill="#010F0B"/>
<path d="M97.4167 33.0002H93.6904L96.2803 14.5995H100.007L99.9008 15.1778C99.8215 15.6246 99.7158 15.9927 99.3987 16.5447L99.1873 16.939L99.2666 16.9916L99.7423 16.3607C100.588 14.9938 102.226 14.2314 103.68 14.2314C106.983 14.2314 108.728 16.6761 108.146 20.7768L108.04 21.6443C107.485 25.4559 105.028 28.1108 101.724 28.1108C100.35 28.1108 99.0023 27.4537 98.5002 26.1656H98.368L97.4167 33.0002ZM101.222 25.4033C102.676 25.4033 103.971 23.9838 104.288 21.6969L104.446 20.6717C104.763 18.3847 103.838 16.9653 102.359 16.9653C100.799 16.9653 99.5044 18.3322 99.1873 20.4877L99.0023 21.8546C98.6852 24.0101 99.6101 25.4033 101.222 25.4033Z" fill="#010F0B"/>
<path d="M76.7628 27.7428H73.0366L74.8865 14.5732H78.6127L78.5598 14.836C78.4806 15.2829 78.322 15.6509 77.9784 16.1767L77.8199 16.4132L77.8727 16.4658L78.4277 15.9138C79.3262 14.8886 80.8062 14.2314 82.1275 14.2314C84.0303 14.2314 85.2988 14.9675 85.8802 16.2818H85.9859C87.1751 14.8623 88.7872 14.2314 90.4785 14.2314C93.6498 14.2314 95.0504 16.3081 94.4954 20.1197L93.4384 27.7428H89.7121L90.8221 19.9357C91.0335 18.3585 90.5842 16.939 89.1043 16.939C87.7037 16.939 86.4616 18.0956 86.1973 20.0671L85.1138 27.7428H81.3611L82.4711 19.9357C82.6825 18.3585 82.2332 16.939 80.7533 16.939C79.3527 16.939 78.1106 18.0956 77.8199 20.0671L76.7628 27.7428Z" fill="#010F0B"/>
<path d="M57.7525 27.7425H53.9999L63.6194 9.3418H67.927L72.3668 27.7425H68.6406L67.6627 23.7206H59.8667L57.7525 27.7425ZM65.1257 13.39L61.4788 20.5925H66.9228L65.2843 13.39H65.1257Z" fill="#010F0B"/>
<circle cx="21" cy="21" r="21" fill="#9EE970"/>
<path d="M31.9205 31.9199H26.9793V18.9895C24.5522 20.5047 22.0877 21.963 19.9794 23.8807C17.5589 26.0823 15.9853 28.5872 15.9853 31.9201H11.0442C11.0442 26.7296 13.6088 22.9959 16.6545 20.2255C18.5069 18.5406 20.6839 17.0958 22.6485 15.8611H10.9205V10.9199H31.9205V31.9199Z" fill="#033122"/>
</svg>
