<svg width="20" height="20" viewBox="0 0 20 20" fill="none" xmlns="http://www.w3.org/2000/svg">
<path d="M6.50831 18.3335L13.4916 18.3335C16.525 18.3335 18.3333 16.5252 18.3333 13.4918L18.3333 6.51683C18.3333 3.47516 16.525 1.66683 13.4916 1.66683L6.51665 1.66683C3.48331 1.66683 1.67498 3.47516 1.67498 6.5085L1.67498 13.4918C1.66665 16.5252 3.47498 18.3335 6.50831 18.3335ZM5.39165 13.7252L11.825 7.29183L9.30831 7.29183C8.96665 7.29183 8.68331 7.0085 8.68331 6.66683C8.68331 6.32516 8.96665 6.04183 9.30831 6.04183L13.3333 6.04183C13.675 6.04183 13.9583 6.32516 13.9583 6.66683L13.9583 10.6918C13.9583 11.0335 13.675 11.3168 13.3333 11.3168C12.9916 11.3168 12.7083 11.0335 12.7083 10.6918L12.7083 8.17516L6.27498 14.6085C6.14998 14.7335 5.99165 14.7918 5.83331 14.7918C5.67498 14.7918 5.51665 14.7335 5.39165 14.6085C5.14998 14.3668 5.14998 13.9668 5.39165 13.7252Z" fill="#010F0B"/>
</svg>
