<svg width="17" height="17" viewBox="0 0 17 17" fill="none" xmlns="http://www.w3.org/2000/svg">
<path d="M11.825 0H4.84167C1.80833 0 0 1.80833 0 4.84167V11.8167C0 14.8583 1.80833 16.6667 4.84167 16.6667H11.8167C14.85 16.6667 16.6583 14.8583 16.6583 11.825V4.84167C16.6667 1.80833 14.8583 0 11.825 0ZM12.9417 4.60833L6.50833 11.0417H9.025C9.36667 11.0417 9.65 11.325 9.65 11.6667C9.65 12.0083 9.36667 12.2917 9.025 12.2917H5C4.65833 12.2917 4.375 12.0083 4.375 11.6667V7.64167C4.375 7.3 4.65833 7.01667 5 7.01667C5.34167 7.01667 5.625 7.3 5.625 7.64167V10.1583L12.0583 3.725C12.1833 3.6 12.3417 3.54167 12.5 3.54167C12.6583 3.54167 12.8167 3.6 12.9417 3.725C13.1833 3.96667 13.1833 4.36667 12.9417 4.60833Z" fill="#010F0B"/>
</svg>
