<svg width="28" height="28" viewBox="0 0 28 28" fill="none" xmlns="http://www.w3.org/2000/svg">
<circle cx="14" cy="14" r="14" fill="#00CD3B"/>
<path d="M12 11.9999H10.5882V8.30558C9.89478 8.73848 9.19062 9.15514 8.58826 9.70303C7.8967 10.3321 7.44709 11.0477 7.44709 12H6.03533C6.03533 10.517 6.76809 9.45025 7.63828 8.65872C8.16754 8.17731 8.78953 7.76451 9.35086 7.41174H6V6H12V11.9999Z" fill="white"/>
<path d="M16 16.0001L17.4118 16.0001L17.4118 19.6944C18.1052 19.2615 18.8094 18.8449 19.4117 18.297C20.1033 17.6679 20.5529 16.9523 20.5529 16L21.9647 16C21.9647 17.483 21.2319 18.5497 20.3617 19.3413C19.8325 19.8227 19.2105 20.2355 18.6491 20.5883L22 20.5883L22 22L16 22L16 16.0001Z" fill="white"/>
</svg>
