<svg width="17" height="17" viewBox="0 0 17 17" fill="none" xmlns="http://www.w3.org/2000/svg">
<path d="M11.825 0H4.84167C1.80833 0 0 1.80833 0 4.84167V11.8167C0 14.8583 1.80833 16.6667 4.84167 16.6667H11.8167C14.85 16.6667 16.6583 14.8583 16.6583 11.825V4.84167C16.6667 1.80833 14.8583 0 11.825 0ZM7.525 13.05C7.76667 13.2917 7.76667 13.6917 7.525 13.9333C7.4 14.0583 7.24167 14.1167 7.08333 14.1167C6.925 14.1167 6.76667 14.0583 6.64167 13.9333L5.20833 12.5L3.775 13.9333C3.65 14.05 3.49167 14.1167 3.33333 14.1167C3.175 14.1167 3.01667 14.0583 2.89167 13.9333C2.65 13.6917 2.65 13.2917 2.89167 13.05L4.325 11.6167L2.89167 10.1833C2.65 9.94167 2.65 9.54167 2.89167 9.3C3.13333 9.05833 3.53333 9.05833 3.775 9.3L5.20833 10.7333L6.64167 9.3C6.88333 9.05833 7.28333 9.05833 7.525 9.3C7.76667 9.54167 7.76667 9.94167 7.525 10.1833L6.09167 11.6167L7.525 13.05ZM7.08333 5.675H3.33333C2.99167 5.675 2.70833 5.39167 2.70833 5.05C2.70833 4.70833 2.99167 4.425 3.33333 4.425H7.08333C7.425 4.425 7.70833 4.70833 7.70833 5.05C7.70833 5.39167 7.425 5.675 7.08333 5.675ZM13.3333 13.8H9.58333C9.24167 13.8 8.95833 13.5167 8.95833 13.175C8.95833 12.8333 9.24167 12.55 9.58333 12.55H13.3333C13.675 12.55 13.9583 12.8333 13.9583 13.175C13.9583 13.5167 13.675 13.8 13.3333 13.8ZM13.3333 10.675H9.58333C9.24167 10.675 8.95833 10.3917 8.95833 10.05C8.95833 9.70833 9.24167 9.425 9.58333 9.425H13.3333C13.675 9.425 13.9583 9.70833 13.9583 10.05C13.9583 10.3917 13.675 10.675 13.3333 10.675ZM13.3333 5.675H12.1V6.925C12.1 7.26667 11.8167 7.55 11.475 7.55C11.1333 7.55 10.85 7.26667 10.85 6.925V5.675H9.58333C9.24167 5.675 8.95833 5.39167 8.95833 5.05C8.95833 4.70833 9.24167 4.425 9.58333 4.425H10.85V3.175C10.85 2.83333 11.1333 2.55 11.475 2.55C11.8167 2.55 12.1 2.83333 12.1 3.175V4.425H13.3333C13.675 4.425 13.9583 4.70833 13.9583 5.05C13.9583 5.39167 13.675 5.675 13.3333 5.675Z" fill="#292D32"/>
</svg>
