<svg width="17" height="17" viewBox="0 0 17 17" fill="none" xmlns="http://www.w3.org/2000/svg">
<path d="M11.825 0H4.84167C1.80833 0 0 1.80833 0 4.84167V11.825C0 14.8583 1.80833 16.6667 4.84167 16.6667H11.825C14.8583 16.6667 16.6667 14.8583 16.6667 11.825V4.84167C16.6667 1.80833 14.8583 0 11.825 0ZM10.2167 8.33333C10.8667 8.55833 11.7333 9.03333 11.7333 10.525C11.7333 11.8083 10.7333 12.85 9.5 12.85H8.95833V13.3333C8.95833 13.675 8.675 13.9583 8.33333 13.9583C7.99167 13.9583 7.70833 13.675 7.70833 13.3333V12.85H7.40833C6.04167 12.85 4.93333 11.6917 4.93333 10.275C4.93333 9.93333 5.20833 9.65 5.55833 9.65C5.9 9.65 6.18333 9.93333 6.18333 10.275C6.18333 11.0083 6.73333 11.6 7.40833 11.6H7.70833V8.775L6.45 8.33333C5.8 8.10833 4.93333 7.63333 4.93333 6.14167C4.93333 4.85833 5.93333 3.81667 7.16667 3.81667H7.70833V3.33333C7.70833 2.99167 7.99167 2.70833 8.33333 2.70833C8.675 2.70833 8.95833 2.99167 8.95833 3.33333V3.81667H9.25833C10.625 3.81667 11.7333 4.975 11.7333 6.39167C11.7333 6.73333 11.4583 7.01667 11.1083 7.01667C10.7667 7.01667 10.4833 6.73333 10.4833 6.39167C10.4833 5.65833 9.93333 5.06667 9.25833 5.06667H8.95833V7.89167L10.2167 8.33333Z" fill="#292D32"/>
</svg>
