<svg width="20" height="20" viewBox="0 0 20 20" fill="none" xmlns="http://www.w3.org/2000/svg">
<path d="M19.1667 12.6836C18.825 12.6836 18.5417 12.9669 18.5417 13.3086C18.5417 15.7753 16.825 17.8419 14.5167 18.3836L14.7417 18.0086C14.9167 17.7086 14.825 17.3253 14.525 17.1503C14.2334 16.9753 13.8417 17.0669 13.6667 17.3669L12.7917 18.8253C12.675 19.0169 12.675 19.2586 12.7834 19.4503C12.8917 19.6503 13.1 19.7669 13.325 19.7669C16.8834 19.7669 19.7834 16.8669 19.7834 13.3086C19.7917 12.9669 19.5084 12.6836 19.1667 12.6836Z" fill="#292D32"/>
<path d="M6.66683 0.183594C3.1085 0.183594 0.208496 3.08359 0.208496 6.64193C0.208496 6.98359 0.491829 7.26693 0.833496 7.26693C1.17516 7.26693 1.4585 6.98359 1.4585 6.64193C1.4585 4.17526 3.17516 2.10859 5.4835 1.56693L5.2585 1.94193C5.0835 2.24193 5.17516 2.62526 5.47516 2.80026C5.76683 2.97526 6.1585 2.88359 6.3335 2.58359L7.2085 1.12526C7.31683 0.933594 7.32516 0.70026 7.2085 0.50026C7.10016 0.308594 6.89183 0.183594 6.66683 0.183594Z" fill="#292D32"/>
<path d="M17.9169 7.22516C17.9169 9.79183 16.0502 11.9085 13.6085 12.3002C13.6085 12.2918 13.6085 12.2918 13.6085 12.2835C13.3669 9.17516 10.8502 6.64183 7.7002 6.39183C8.09186 3.95016 10.2085 2.0835 12.7752 2.0835C15.6169 2.0835 17.9169 4.3835 17.9169 7.22516Z" fill="#292D32"/>
<path d="M8.17494 11.8333C8.17494 11.7083 8.03327 11.5166 7.85827 11.5166H6.1416V12.1416H7.85827C8.03327 12.1499 8.17494 12.0083 8.17494 11.8333Z" fill="#292D32"/>
<path d="M8.1916 13.3999H7.85827H6.1416V14.0249H8.19993C8.4666 14.0249 8.64994 13.8582 8.64994 13.7082C8.64994 13.5582 8.45827 13.3999 8.1916 13.3999Z" fill="#292D32"/>
<path d="M12.3585 12.375C12.1668 9.85 10.1502 7.83333 7.62516 7.64167C7.49183 7.63333 7.36683 7.625 7.22516 7.625C4.3835 7.625 2.0835 9.925 2.0835 12.775C2.0835 15.6167 4.3835 17.9167 7.22516 17.9167C10.0668 17.9167 12.3752 15.6167 12.3752 12.775C12.3752 12.6333 12.3668 12.5083 12.3585 12.375ZM8.19183 15.275H7.64183V15.5917C7.64183 15.9333 7.3585 16.2167 7.01683 16.2167C6.67516 16.2167 6.39183 15.9333 6.39183 15.5917V15.275H5.51683C5.17516 15.275 4.89183 14.9917 4.89183 14.65V12.775V10.9C4.89183 10.5583 5.17516 10.275 5.51683 10.275H6.39183V9.95833C6.39183 9.61667 6.67516 9.33333 7.01683 9.33333C7.3585 9.33333 7.64183 9.61667 7.64183 9.95833V10.275H7.8585C8.69183 10.275 9.42516 11.0083 9.42516 11.8417C9.42516 12.0833 9.36683 12.3083 9.26683 12.5167C9.65016 12.8 9.89183 13.2333 9.89183 13.7167C9.89183 14.575 9.1335 15.275 8.19183 15.275Z" fill="#292D32"/>
</svg>
